{"title":"Date Night 2010 DVDRip XviD AC3-LEGi0N","uid":5759305,"size":1498424648,"categoryP":"video","categoryS":"movies","magnet":"?xt=urn:btih:63d6d6c503de1784bc358d8f071f5fcc9b7b5cc4&amp;dn=Date+Night+2010+DVDRip+XviD+AC3-LEGi0N&amp;tr=udp%3A%2F%2Ftracker.openbittorrent.com%3A80&amp;tr=udp%3A%2F%2Fopen.demonii.com%3A1337&amp;tr=udp%3A%2F%2Ftracker.coppersurfer.tk%3A6969&amp;tr=udp%3A%2F%2Fexodus.desync.com%3A6969","seeders":0,"leechers":0,"uploader":"TvTeam","files":5,"time":1281674304,"description":". \n  &lt;a href=&quot;\nhttp://www.torrentday.com/&quot; rel=&quot;nofollow&quot; target=&quot;_NEW&quot;&gt;\nhttp://www.torrentday.com/&lt;/a&gt;        :     The Hottest Private Tracker On The Net!!!\n\n\n               www . TorrentDay . Com \n(((((((((((((= Enjoy No RAR releases =))))))))))))))))))))\n\n\n...................................NFO:....................................\n\n\n\n[b]Date Night 2010 DVDRip XviD AC3-LEGi0N[/center]                            \n\n[img]http://leetleech.org/images/48874973695367351744.png[/img][b]\n[color=red]General[/color]\nFormat:AVI \nFile Size: 1.37 GiB\nDuration: 1h 27mn\nOverall bit rate: 2 233 Kbps\nIMDB Rating: 6.6/10   16 626 votes\nGenre: Comedy : Crime : Romance \nIMDb Link: http://www.imdb.com/title/tt1279935/\nSource: NTSC DVDR-PrisM  \n\n[color=red]Video[/color]\nFormat: MPEG-4 Visual\nFormat profile: Advanced Simple@L5\nFormat settings, BVOP: Yes\nFormat settings, QPel: No         \nFormat settings, GMC:  No warpoints\nFormat settings, Matrix: Default (H.263)\nMuxing mode: Packed bitstream\nCodec ID: XVID\nBit rate: 1 776Kbps\nWidth: 720 pixels\nHeight: 304 pixels\nDAR: 2.35:1\nFrame rate 23.976 fps\nResolution: 8 bits\nColorimetry: 4:2:0\nScan Type: Progressive\nBits/(Pixel*Frame): 0.338\nStream size: 1 09 GiB (80%)\n\n[color=red]Audio[/color]\nFormat: AC-3\nBit rate mode: Constant\nBit rate: 448 Kbps\nChannel(s): 6 channels\nSampling rate: 48.0 KHz\nStream size: 281 MiB (20%) \n\n[img]http://leetleech.org/images/89524873606771859129.png[/img]\n In New York City, a case of mistaken identity turns a bored married\ncouple's attempt at a glamorous and romantic evening into something\nmore thrilling and dangerous.      \n[color=red]Tagline:[/color]\nONE ORDINARY COUPLE. ONE LITTLE WHITE LIE.                 \n\n[img]http://leetleech.org/images/84434050717770922575.png[/img]\nSteve Carell   ...  Phil Foster             \nTina Fey       ...  Claire Foster   \nMark Wahlberg  ...  Holbrooke      \nTaraji Henson  ...  Detective Arroyo\nJimmi Simpson  ...  Armstrong\nCommon         ...  Collins           \nWilliam Fichtner..  DA Frank Crenshaw\n\n[color=red]GREETZ[/color]\nNoir | xXTHORNXx | bigimac | LUSi |\n\nkempas | KaN1vE | mike160 | skillz |\n\nLungbuster | Sheikh | DiLLoN1369  |\n\n0B5C3N3 | FLAWL3SS | AND ALL P2P![/b]\n[color=red]SAMPLE INCLUDED[/color]\n[img]http://leetleech.org/images/95521316153253938506.png[/img]\n\n\n \n\n[img]http://i32.timypic.com/5uld8z.jpg[/img] \n[center][img]http://leetleech.org/images/12755021538703799215.png[/img][/center]","torrent":{"xt":"urn:btih:63d6d6c503de1784bc358d8f071f5fcc9b7b5cc4","amp;dn":"Date+Night+2010+DVDRip+XviD+AC3-LEGi0N","amp;tr":["udp%3A%2F%2Ftracker.openbittorrent.com%3A80","udp%3A%2F%2Fopen.demonii.com%3A1337","udp%3A%2F%2Ftracker.coppersurfer.tk%3A6969","udp%3A%2F%2Fexodus.desync.com%3A6969"],"infoHash":"63d6d6c503de1784bc358d8f071f5fcc9b7b5cc4","infoHashBuffer":{"type":"Buffer","data":[99,214,214,197,3,222,23,132,188,53,141,143,7,31,95,204,155,123,92,196]},"announce":[],"urlList":[]}}